<svg xmlns="http://www.w3.org/2000/svg" xmlns:xlink="http://www.w3.org/1999/xlink" xmlns:lucid="lucid" width="771" height="498"><g transform="translate(-95 -57)" lucid:page-tab-id="0_0"><path d="M0 0h985.85v761.8H0z" fill="#fff"/><path d="M380 85.14c0-2.76 2.24-5 5-5h190.08c2.76 0 5 2.24 5 5v170c0 2.76-2.24 5-5 5H385c-2.76 0-5-2.24-5-5z" fill="#fff"/><path d="M380 80.14h200.08v40H380z" fill="#ccc"/><path d="M380 85.14c0-2.76 2.24-5 5-5h190.08c2.76 0 5 2.24 5 5v170c0 2.76-2.24 5-5 5H385c-2.76 0-5-2.24-5-5zM380 120.14h200.08" stroke="#999" stroke-width="2" fill="none"/><use xlink:href="#a" transform="matrix(1,0,0,1,389.99999999996044,80.13986431082608) translate(5 24.9916142557652)"/><use xlink:href="#b" transform="matrix(1,0,0,1,384.99999999996044,122.63986431082608) translate(5 16.4916142557652)"/><use xlink:href="#c" transform="matrix(1,0,0,1,384.99999999996044,150.63986431082608) translate(5 16.4916142557652)"/><use xlink:href="#d" transform="matrix(1,0,0,1,384.99999999996044,178.63986431082608) translate(5 16.4916142557652)"/><use xlink:href="#e" transform="matrix(1,0,0,1,384.99999999996044,206.63986431082608) translate(5 16.4916142557652)"/><use xlink:href="#f" transform="matrix(1,0,0,1,384.99999999996044,234.63986431082608) translate(5 16.4916142557652)"/><path d="M120.08 85.14c0-2.76 2.23-5 5-5h190c2.76 0 5 2.24 5 5v114c0 2.76-2.24 5-5 5h-190c-2.77 0-5-2.24-5-5z" fill="#fff"/><path d="M120.08 80.14h200v40h-200z" fill="#ccc"/><path d="M120.08 85.14c0-2.76 2.23-5 5-5h190c2.76 0 5 2.24 5 5v114c0 2.76-2.24 5-5 5h-190c-2.77 0-5-2.24-5-5zM120.08 120.14h200" stroke="#999" stroke-width="2" fill="none"/><use xlink:href="#g" transform="matrix(1,0,0,1,130.07547169807367,80.13986431082608) translate(5 24.9916142557652)"/><use xlink:href="#h" transform="matrix(1,0,0,1,125.07547169807367,122.63986431082608) translate(5 16.4916142557652)"/><use xlink:href="#b" transform="matrix(1,0,0,1,125.07547169807367,150.63986431082608) translate(5 16.4916142557652)"/><use xlink:href="#i" transform="matrix(1,0,0,1,125.07547169807367,178.63986431082608) translate(5 16.4916142557652)"/><path d="M640 85c0-2.76 2.24-5 5-5h190c2.76 0 5 2.24 5 5v142c0 2.76-2.24 5-5 5H645c-2.76 0-5-2.24-5-5z" fill="#fff"/><path d="M640 80h200v40H640z" fill="#ccc"/><path d="M640 85c0-2.76 2.24-5 5-5h190c2.76 0 5 2.24 5 5v142c0 2.76-2.24 5-5 5H645c-2.76 0-5-2.24-5-5zM640 120h200" stroke="#999" stroke-width="2" fill="none"/><use xlink:href="#j" transform="matrix(1,0,0,1,650,80) translate(5 24.9916142557652)"/><use xlink:href="#b" transform="matrix(1,0,0,1,645,122.5) translate(5 16.4916142557652)"/><use xlink:href="#k" transform="matrix(1,0,0,1,645,150.5) translate(5 16.4916142557652)"/><use xlink:href="#l" transform="matrix(1,0,0,1,645,178.5) translate(5 16.4916142557652)"/><use xlink:href="#m" transform="matrix(1,0,0,1,645,206.5) translate(5 16.4916142557652)"/><path d="M378 133.78h-22.96c-2.76 0-5 2.24-5 5v18.56c0 2.76-2.24 5-5 5h-3.96" stroke="#999" stroke-width="2" fill="none"/><path d="M379 134.78h-1.03v-2H379z" fill="#999"/><path d="M321.52 152.34l20 10-20 10M321.52 162.34h20M341.52 172.34v-20" stroke="#999" stroke-width="2" fill="#fff"/><path d="M582.08 133.78H619" stroke="#999" stroke-width="2" fill="none"/><path d="M582.1 134.78h-1.02v-2h1.02z" fill="#999"/><path d="M638.55 143.78l-20-10 20-10M638.55 133.78h-20M618.55 123.78v20" stroke="#999" stroke-width="2" fill="#fff"/><path d="M30.33 17.92h542v48h-542z" fill="none"/><use xlink:href="#n" transform="matrix(1,0,0,1,30.33264150707646,17.924528301886795) translate(0 27.73427672955975)"/><use xlink:href="#o" transform="matrix(1,0,0,1,30.33264150707646,17.924528301886795) translate(71.05498777078965 27.73427672955975)"/><use xlink:href="#p" transform="matrix(1,0,0,1,30.33264150707646,17.924528301886795) translate(213.16496331236897 27.73427672955975)"/><use xlink:href="#q" transform="matrix(1,0,0,1,30.33264150707646,17.924528301886795) translate(307.29985587002096 27.73427672955975)"/><path d="M614.33 17.92h347.2v48h-347.2z" fill="none"/><use xlink:href="#r" transform="matrix(1,0,0,1,614.3326415070765,17.924528301886795) translate(126.93081761006292 26.9874213836478)"/><use xlink:href="#s" transform="matrix(1,0,0,1,614.3326415070765,17.924528301886795) translate(158.42321802935012 26.9874213836478)"/><use xlink:href="#t" transform="matrix(1,0,0,1,614.3326415070765,17.924528301886795) translate(239.7059748427673 26.9874213836478)"/><use xlink:href="#u" transform="matrix(1,0,0,1,614.3326415070765,17.924528301886795) translate(256.01231656184484 26.9874213836478)"/><use xlink:href="#v" transform="matrix(1,0,0,1,614.3326415070765,17.924528301886795) translate(289.91125087351503 26.9874213836478)"/><use xlink:href="#w" transform="matrix(1,0,0,1,614.3326415070765,17.924528301886795) translate(314.80642907058 26.9874213836478)"/><path d="M640 382.94c0-2.76 2.24-5 5-5h190c2.76 0 5 2.24 5 5v142c0 2.76-2.24 5-5 5H645c-2.76 0-5-2.24-5-5z" fill="#fff"/><path d="M640 377.94h200v40H640z" fill="#ccc"/><path d="M640 382.94c0-2.76 2.24-5 5-5h190c2.76 0 5 2.24 5 5v142c0 2.76-2.24 5-5 5H645c-2.76 0-5-2.24-5-5zM640 417.94h200" stroke="#999" stroke-width="2" fill="none"/><use xlink:href="#x" transform="matrix(1,0,0,1,650,377.94) translate(5 24.9916142557652)"/><use xlink:href="#y" transform="matrix(1,0,0,1,645,420.44) translate(5 16.4916142557652)"/><use xlink:href="#z" transform="matrix(1,0,0,1,645,448.44) translate(5 16.4916142557652)"/><use xlink:href="#A" transform="matrix(1,0,0,1,645,476.44) translate(5 16.4916142557652)"/><use xlink:href="#B" transform="matrix(1,0,0,1,645,504.44) translate(5 16.4916142557652)"/><path d="M144.08 484c-13.26 0-24-10.75-24-24 0-10.6 6.5-19.55 16.58-22.83C136.08 406 176.08 400 192.08 412c8-18 48-12 48 6 24-6 48 18 32 48 16 24 0 54-32 42-8 15.6-40 15.6-48 0-16 12-48 6-48-24z" stroke="#999" stroke-width="2" fill="#fff"/><use xlink:href="#C" transform="matrix(1,0,0,1,125.07547169807367,405) translate(35.27144479385045 57.9874213836478)"/><use xlink:href="#D" transform="matrix(1,0,0,1,125.07547169807367,405) translate(89.87486897274633 57.9874213836478)"/><path d="M360 436h120v48H360z" stroke="#999" stroke-width="2" fill="#fff"/><use xlink:href="#E" transform="matrix(1,0,0,1,365,441) translate(40.93422431865828 21.9874213836478)"/><path d="M276.8 460h63.7" stroke="#999" stroke-width="2" fill="none"/><path d="M276.83 461h-1.36l.67-2h.7z" fill="#999"/><path d="M355.76 460l-14.26 4.64v-9.28z" stroke="#999" stroke-width="2" fill="#999"/><path d="M420 434V320.07H220.08v-96.43" stroke="#999" stroke-width="2" fill="none"/><path d="M421 435h-2v-1.03h2z" fill="#999"/><path d="M220.08 208.38l4.63 14.26h-9.26z" stroke="#999" stroke-width="2" fill="#999"/><path d="M420 434v-85.93h60.04v-68.43" stroke="#999" stroke-width="2" fill="none"/><path d="M421 435h-2v-1.03h2z" fill="#999"/><path d="M480.04 264.38l4.63 14.26h-9.27z" stroke="#999" stroke-width="2" fill="#999"/><path d="M482 460h138.5" stroke="#999" stroke-width="2" fill="none"/><path d="M482.03 461H481v-2h1.03z" fill="#999"/><path d="M635.76 460l-14.26 4.64v-9.28z" stroke="#999" stroke-width="2" fill="#999"/><path d="M640 264.97h200v80H640z" stroke="#999" stroke-width="2" fill="#fff"/><use xlink:href="#F" transform="matrix(1,0,0,1,645,269.97) translate(0 19.067085953878408)"/><use xlink:href="#G" transform="matrix(1,0,0,1,645,269.97) translate(6.0578266946191475 19.067085953878408)"/><use xlink:href="#H" transform="matrix(1,0,0,1,645,269.97) translate(30.344456091311436 19.067085953878408)"/><use xlink:href="#I" transform="matrix(1,0,0,1,645,269.97) translate(71.22787095271372 19.067085953878408)"/><use xlink:href="#J" transform="matrix(1,0,0,1,645,269.97) translate(100.46587467971115 19.067085953878408)"/><use xlink:href="#F" transform="matrix(1,0,0,1,645,269.97) translate(0 31.0167714884696)"/><use xlink:href="#K" transform="matrix(1,0,0,1,645,269.97) translate(6.0578266946191475 31.0167714884696)"/><use xlink:href="#L" transform="matrix(1,0,0,1,645,269.97) translate(34.27236198462614 31.0167714884696)"/><use xlink:href="#M" transform="matrix(1,0,0,1,645,269.97) translate(48.62858141160028 31.0167714884696)"/><use xlink:href="#I" transform="matrix(1,0,0,1,645,269.97) translate(91.69723969252271 31.0167714884696)"/><use xlink:href="#N" transform="matrix(1,0,0,1,645,269.97) translate(120.93524341952015 31.0167714884696)"/><use xlink:href="#O" transform="matrix(1,0,0,1,645,269.97) translate(0 42.9664570230608)"/><use xlink:href="#P" transform="matrix(1,0,0,1,645,269.97) translate(54.133181924062434 42.9664570230608)"/><use xlink:href="#Q" transform="matrix(1,0,0,1,645,269.97) translate(103.78523177265316 42.9664570230608)"/><use xlink:href="#R" transform="matrix(1,0,0,1,645,269.97) translate(0 54.916142557651995)"/><use xlink:href="#S" transform="matrix(1,0,0,1,645,269.97) translate(48.075355229443275 54.916142557651995)"/><use xlink:href="#T" transform="matrix(1,0,0,1,645,269.97) translate(70.70230607966457 54.916142557651995)"/><use xlink:href="#U" transform="matrix(1,0,0,1,645,269.97) translate(107.68547635686 54.916142557651995)"/><use xlink:href="#V" transform="matrix(1,0,0,1,645,269.97) translate(130.86565338923828 54.916142557651995)"/><path d="M740 262.97V251.5" stroke="#000" stroke-width="2" fill="none"/><path d="M741 263.97h-2v-1.03h2z"/><path d="M740 236.24l4.64 14.26h-9.28z" stroke="#000" stroke-width="2"/><path d="M740 262.97V251.5M740 262.94v1.03" stroke="#999" stroke-width="2" fill="none"/><path d="M740 236.24l4.64 14.26h-9.28z" stroke="#999" stroke-width="2" fill="#999"/><path d="M740 375.94v-11.47" stroke="#999" stroke-width="2" fill="none"/><path d="M741 376.94h-2v-1.03h2z" fill="#999"/><path d="M740 349.2l4.64 14.27h-9.28z" stroke="#999" stroke-width="2" fill="#999"/><defs><path fill="#333" d="M136-208V0H84v-208H4v-40h212v40h-80" id="W"/><path fill="#333" d="M240-174c0 40-23 61-54 70L253 0h-59l-57-94H76V0H24v-248c93 4 217-23 216 74zM76-134c48-2 112 12 112-38 0-48-66-32-112-35v73" id="X"/><path fill="#333" d="M199 0l-22-63H83L61 0H9l90-248h61L250 0h-51zm-33-102l-36-108c-10 38-24 72-36 108h72" id="Y"/><path fill="#333" d="M67-125c0 53 21 87 73 88 37 1 54-22 65-47l45 17C233-25 199 4 140 4 58 4 20-42 15-125 8-235 124-281 211-232c18 10 29 29 36 50l-46 12c-8-25-30-41-62-41-52 0-71 34-72 86" id="Z"/><path fill="#333" d="M195 0l-88-114-31 24V0H24v-248h52v113l112-113h60L142-143 257 0h-62" id="aa"/><path fill="#333" d="M-4 44V30h207v14H-4" id="ab"/><path fill="#333" d="M24 0v-248h52V0H24" id="ac"/><path fill="#333" d="M175 0L67-191c6 58 2 128 3 191H24v-248h59L193-55c-6-58-2-129-3-193h46V0h-61" id="ad"/><path fill="#333" d="M76-208v77h127v40H76V0H24v-248h183v40H76" id="ae"/><path fill="#333" d="M140-251c80 0 125 45 125 126S219 4 139 4C58 4 15-44 15-125s44-126 125-126zm-1 214c52 0 73-35 73-88 0-50-21-86-72-86-52 0-73 35-73 86s22 88 72 88" id="af"/><g id="a"><use transform="matrix(0.027661309107849988,0,0,0.027661309107849988,0,0)" xlink:href="#W"/><use transform="matrix(0.027661309107849988,0,0,0.027661309107849988,6.0578266946191475,0)" xlink:href="#X"/><use transform="matrix(0.027661309107849988,0,0,0.027661309107849988,13.222105753552295,0)" xlink:href="#Y"/><use transform="matrix(0.027661309107849988,0,0,0.027661309107849988,20.386384812485442,0)" xlink:href="#Z"/><use transform="matrix(0.027661309107849988,0,0,0.027661309107849988,27.55066387141859,0)" xlink:href="#aa"/><use transform="matrix(0.027661309107849988,0,0,0.027661309107849988,34.71494293035174,0)" xlink:href="#ab"/><use transform="matrix(0.027661309107849988,0,0,0.027661309107849988,40.247204751921736,0)" xlink:href="#ac"/><use transform="matrix(0.027661309107849988,0,0,0.027661309107849988,43.01333566270674,0)" xlink:href="#ad"/><use transform="matrix(0.027661309107849988,0,0,0.027661309107849988,50.177614721639884,0)" xlink:href="#ae"/><use transform="matrix(0.027661309107849988,0,0,0.027661309107849988,56.23544141625903,0)" xlink:href="#af"/></g><path fill="#333" d="M115-3C79 11 28 4 28-45v-112H4v-33h27l15-45h31v45h36v33H77v99c-1 23 16 31 38 25v30" id="ag"/><path fill="#333" d="M135-150c-39-12-60 13-60 57V0H25l-1-190h47c2 13-1 29 3 40 6-28 27-53 61-41v41" id="ah"/><path fill="#333" d="M133-34C117-15 103 5 69 4 32 3 11-16 11-54c-1-60 55-63 116-61 1-26-3-47-28-47-18 1-26 9-28 27l-52-2c7-38 36-58 82-57s74 22 75 68l1 82c-1 14 12 18 25 15v27c-30 8-71 5-69-32zm-48 3c29 0 43-24 42-57-32 0-66-3-65 30 0 17 8 27 23 27" id="ai"/><path fill="#333" d="M190-63c-7 42-38 67-86 67-59 0-84-38-90-98-12-110 154-137 174-36l-49 2c-2-19-15-32-35-32-30 0-35 28-38 64-6 74 65 87 74 30" id="aj"/><path fill="#333" d="M147 0L96-86 75-71V0H25v-261h50v150l67-79h53l-66 74L201 0h-54" id="ak"/><path fill="#333" d="M25-224v-37h50v37H25zM25 0v-190h50V0H25" id="al"/><path fill="#333" d="M88-194c31-1 46 15 58 34l-1-101h50l1 261h-48c-2-10 0-23-3-31C134-8 116 4 84 4 32 4 16-41 15-95c0-56 19-97 73-99zm17 164c33 0 40-30 41-66 1-37-9-64-41-64s-38 30-39 65c0 43 13 65 39 65" id="am"/><g id="b"><use transform="matrix(0.027661309107849988,0,0,0.027661309107849988,0,0)" xlink:href="#ag"/><use transform="matrix(0.027661309107849988,0,0,0.027661309107849988,3.2916957838341485,0)" xlink:href="#ah"/><use transform="matrix(0.027661309107849988,0,0,0.027661309107849988,7.164279058933147,0)" xlink:href="#ai"/><use transform="matrix(0.027661309107849988,0,0,0.027661309107849988,12.696540880503145,0)" xlink:href="#aj"/><use transform="matrix(0.027661309107849988,0,0,0.027661309107849988,18.228802702073143,0)" xlink:href="#ak"/><use transform="matrix(0.027661309107849988,0,0,0.027661309107849988,23.761064523643142,0)" xlink:href="#ab"/><use transform="matrix(0.027661309107849988,0,0,0.027661309107849988,29.29332634521314,0)" xlink:href="#al"/><use transform="matrix(0.027661309107849988,0,0,0.027661309107849988,32.05945725599814,0)" xlink:href="#am"/></g><path fill="#333" d="M135-194c87-1 58 113 63 194h-50c-7-57 23-157-34-157-59 0-34 97-39 157H25l-1-190h47c2 12-1 28 3 38 12-26 28-41 61-42" id="an"/><path fill="#333" d="M220-157c-53 9-28 100-34 157h-49v-107c1-27-5-49-29-50C55-147 81-57 75 0H25l-1-190h47c2 12-1 28 3 38 10-53 101-56 108 0 13-22 24-43 59-42 82 1 51 116 57 194h-49v-107c-1-25-5-48-29-50" id="ao"/><path fill="#333" d="M185-48c-13 30-37 53-82 52C43 2 14-33 14-96s30-98 90-98c62 0 83 45 84 108H66c0 31 8 55 39 56 18 0 30-7 34-22zm-45-69c5-46-57-63-70-21-2 6-4 13-4 21h74" id="ap"/><g id="c"><use transform="matrix(0.027661309107849988,0,0,0.027661309107849988,0,0)" xlink:href="#ag"/><use transform="matrix(0.027661309107849988,0,0,0.027661309107849988,3.2916957838341485,0)" xlink:href="#ah"/><use transform="matrix(0.027661309107849988,0,0,0.027661309107849988,7.164279058933147,0)" xlink:href="#ai"/><use transform="matrix(0.027661309107849988,0,0,0.027661309107849988,12.696540880503145,0)" xlink:href="#aj"/><use transform="matrix(0.027661309107849988,0,0,0.027661309107849988,18.228802702073143,0)" xlink:href="#ak"/><use transform="matrix(0.027661309107849988,0,0,0.027661309107849988,23.761064523643142,0)" xlink:href="#ab"/><use transform="matrix(0.027661309107849988,0,0,0.027661309107849988,29.29332634521314,0)" xlink:href="#an"/><use transform="matrix(0.027661309107849988,0,0,0.027661309107849988,35.35115303983228,0)" xlink:href="#ai"/><use transform="matrix(0.027661309107849988,0,0,0.027661309107849988,40.88341486140228,0)" xlink:href="#ao"/><use transform="matrix(0.027661309107849988,0,0,0.027661309107849988,49.735033775914275,0)" xlink:href="#ap"/></g><path fill="#333" d="M25 0v-261h50V0H25" id="aq"/><path fill="#333" d="M137-138c1-29-70-34-71-4 15 46 118 7 119 86 1 83-164 76-172 9l43-7c4 19 20 25 44 25 33 8 57-30 24-41C81-84 22-81 20-136c-2-80 154-74 161-7" id="ar"/><g id="d"><use transform="matrix(0.027661309107849988,0,0,0.027661309107849988,0,0)" xlink:href="#ah"/><use transform="matrix(0.027661309107849988,0,0,0.027661309107849988,3.8725832750989984,0)" xlink:href="#ap"/><use transform="matrix(0.027661309107849988,0,0,0.027661309107849988,9.404845096668996,0)" xlink:href="#aq"/><use transform="matrix(0.027661309107849988,0,0,0.027661309107849988,12.170976007453994,0)" xlink:href="#ap"/><use transform="matrix(0.027661309107849988,0,0,0.027661309107849988,17.70323782902399,0)" xlink:href="#ai"/><use transform="matrix(0.027661309107849988,0,0,0.027661309107849988,23.235499650593987,0)" xlink:href="#ar"/><use transform="matrix(0.027661309107849988,0,0,0.027661309107849988,28.767761472163983,0)" xlink:href="#ap"/><use transform="matrix(0.027661309107849988,0,0,0.027661309107849988,34.30002329373398,0)" xlink:href="#ab"/><use transform="matrix(0.027661309107849988,0,0,0.027661309107849988,39.832285115303975,0)" xlink:href="#am"/><use transform="matrix(0.027661309107849988,0,0,0.027661309107849988,45.89011180992312,0)" xlink:href="#ai"/><use transform="matrix(0.027661309107849988,0,0,0.027661309107849988,51.422373631493116,0)" xlink:href="#ag"/><use transform="matrix(0.027661309107849988,0,0,0.027661309107849988,54.714069415327266,0)" xlink:href="#ap"/></g><path fill="#333" d="M85 4C-2 5 27-109 22-190h50c7 57-23 150 33 157 60-5 35-97 40-157h50l1 190h-47c-2-12 1-28-3-38-12 25-28 42-61 42" id="as"/><g id="e"><use transform="matrix(0.027661309107849988,0,0,0.027661309107849988,0,0)" xlink:href="#as"/><use transform="matrix(0.027661309107849988,0,0,0.027661309107849988,6.0578266946191475,0)" xlink:href="#ah"/><use transform="matrix(0.027661309107849988,0,0,0.027661309107849988,9.930409969718145,0)" xlink:href="#al"/></g><path fill="#333" d="M110-194c64 0 96 36 96 99 0 64-35 99-97 99-61 0-95-36-95-99 0-62 34-99 96-99zm-1 164c35 0 45-28 45-65 0-40-10-65-43-65-34 0-45 26-45 65 0 36 10 65 43 65" id="at"/><g id="f"><use transform="matrix(0.027661309107849988,0,0,0.027661309107849988,0,0)" xlink:href="#am"/><use transform="matrix(0.027661309107849988,0,0,0.027661309107849988,6.0578266946191475,0)" xlink:href="#as"/><use transform="matrix(0.027661309107849988,0,0,0.027661309107849988,12.115653389238295,0)" xlink:href="#ah"/><use transform="matrix(0.027661309107849988,0,0,0.027661309107849988,15.988236664337293,0)" xlink:href="#ai"/><use transform="matrix(0.027661309107849988,0,0,0.027661309107849988,21.52049848590729,0)" xlink:href="#ag"/><use transform="matrix(0.027661309107849988,0,0,0.027661309107849988,24.81219426974144,0)" xlink:href="#al"/><use transform="matrix(0.027661309107849988,0,0,0.027661309107849988,27.578325180526438,0)" xlink:href="#at"/><use transform="matrix(0.027661309107849988,0,0,0.027661309107849988,33.636151875145586,0)" xlink:href="#an"/><use transform="matrix(0.027661309107849988,0,0,0.027661309107849988,39.69397856976473,0)" xlink:href="#ab"/><use transform="matrix(0.027661309107849988,0,0,0.027661309107849988,45.22624039133473,0)" xlink:href="#ao"/><use transform="matrix(0.027661309107849988,0,0,0.027661309107849988,54.07785930584672,0)" xlink:href="#ar"/></g><path fill="#333" d="M24-248c120-7 223 5 221 122C244-46 201 0 124 0H24v-248zM76-40c74 7 117-18 117-86 0-67-45-88-117-82v168" id="au"/><path fill="#333" d="M24 0v-248h52v208h133V0H24" id="av"/><path fill="#333" d="M146-102V0H94v-102L6-248h54l60 105 60-105h54" id="aw"/><path fill="#333" d="M24-248c93 1 206-16 204 79-1 75-69 88-152 82V0H24v-248zm52 121c47 0 100 7 100-41 0-47-54-39-100-39v80" id="ax"/><path fill="#333" d="M238-95c0 69-44 99-111 99C63 4 22-25 22-93v-155h51v151c-1 38 19 59 55 60 90 1 49-130 58-211h52v153" id="ay"/><g id="g"><use transform="matrix(0.027661309107849988,0,0,0.027661309107849988,0,0)" xlink:href="#W"/><use transform="matrix(0.027661309107849988,0,0,0.027661309107849988,6.0578266946191475,0)" xlink:href="#X"/><use transform="matrix(0.027661309107849988,0,0,0.027661309107849988,13.222105753552295,0)" xlink:href="#Y"/><use transform="matrix(0.027661309107849988,0,0,0.027661309107849988,20.386384812485442,0)" xlink:href="#Z"/><use transform="matrix(0.027661309107849988,0,0,0.027661309107849988,27.55066387141859,0)" xlink:href="#aa"/><use transform="matrix(0.027661309107849988,0,0,0.027661309107849988,34.71494293035174,0)" xlink:href="#ab"/><use transform="matrix(0.027661309107849988,0,0,0.027661309107849988,40.247204751921736,0)" xlink:href="#au"/><use transform="matrix(0.027661309107849988,0,0,0.027661309107849988,47.41148381085488,0)" xlink:href="#Y"/><use transform="matrix(0.027661309107849988,0,0,0.027661309107849988,54.57576286978803,0)" xlink:href="#ac"/><use transform="matrix(0.027661309107849988,0,0,0.027661309107849988,57.341893780573024,0)" xlink:href="#av"/><use transform="matrix(0.027661309107849988,0,0,0.027661309107849988,62.48689727463314,0)" xlink:href="#aw"/><use transform="matrix(0.027661309107849988,0,0,0.027661309107849988,69.12561146051712,0)" xlink:href="#ab"/><use transform="matrix(0.027661309107849988,0,0,0.027661309107849988,74.65787328208712,0)" xlink:href="#ax"/><use transform="matrix(0.027661309107849988,0,0,0.027661309107849988,81.29658746797112,0)" xlink:href="#af"/><use transform="matrix(0.027661309107849988,0,0,0.027661309107849988,89.04175401816912,0)" xlink:href="#ax"/><use transform="matrix(0.027661309107849988,0,0,0.027661309107849988,95.68046820405311,0)" xlink:href="#ay"/><use transform="matrix(0.027661309107849988,0,0,0.027661309107849988,102.84474726298626,0)" xlink:href="#av"/><use transform="matrix(0.027661309107849988,0,0,0.027661309107849988,108.90257395760541,0)" xlink:href="#Y"/><use transform="matrix(0.027661309107849988,0,0,0.027661309107849988,116.06685301653854,0)" xlink:href="#X"/><use transform="matrix(0.027661309107849988,0,0,0.027661309107849988,123.23113207547169,0)" xlink:href="#ac"/><use transform="matrix(0.027661309107849988,0,0,0.027661309107849988,125.9972629862567,0)" xlink:href="#W"/><use transform="matrix(0.027661309107849988,0,0,0.027661309107849988,132.05508968087585,0)" xlink:href="#aw"/></g><g id="h"><use transform="matrix(0.027661309107849988,0,0,0.027661309107849988,0,0)" xlink:href="#am"/><use transform="matrix(0.027661309107849988,0,0,0.027661309107849988,6.0578266946191475,0)" xlink:href="#am"/><use transform="matrix(0.027661309107849988,0,0,0.027661309107849988,12.115653389238295,0)" xlink:href="#ag"/></g><path fill="#333" d="M135-194c53 0 70 44 70 98 0 56-19 98-73 100-31 1-45-17-59-34 3 33 2 69 2 105H25l-1-265h48c2 10 0 23 3 31 11-24 29-35 60-35zM114-30c33 0 39-31 40-66 0-38-9-64-40-64-56 0-55 130 0 130" id="az"/><path fill="#333" d="M123 10C108 53 80 86 19 72V37c35 8 53-11 59-39L3-190h52l48 148c12-52 28-100 44-148h51" id="aA"/><g id="i"><use transform="matrix(0.027661309107849988,0,0,0.027661309107849988,0,0)" xlink:href="#az"/><use transform="matrix(0.027661309107849988,0,0,0.027661309107849988,6.0578266946191475,0)" xlink:href="#at"/><use transform="matrix(0.027661309107849988,0,0,0.027661309107849988,12.115653389238295,0)" xlink:href="#az"/><use transform="matrix(0.027661309107849988,0,0,0.027661309107849988,18.17348008385744,0)" xlink:href="#as"/><use transform="matrix(0.027661309107849988,0,0,0.027661309107849988,24.23130677847659,0)" xlink:href="#aq"/><use transform="matrix(0.027661309107849988,0,0,0.027661309107849988,26.997437689261588,0)" xlink:href="#ai"/><use transform="matrix(0.027661309107849988,0,0,0.027661309107849988,32.529699510831584,0)" xlink:href="#ah"/><use transform="matrix(0.027661309107849988,0,0,0.027661309107849988,36.40228278593058,0)" xlink:href="#al"/><use transform="matrix(0.027661309107849988,0,0,0.027661309107849988,39.16841369671558,0)" xlink:href="#ag"/><use transform="matrix(0.027661309107849988,0,0,0.027661309107849988,42.46010948054973,0)" xlink:href="#aA"/></g><path fill="#333" d="M169-182c-1-43-94-46-97-3 18 66 151 10 154 114 3 95-165 93-204 36-6-8-10-19-12-30l50-8c3 46 112 56 116 5-17-69-150-10-154-114-4-87 153-88 188-35 5 8 8 18 10 28" id="aB"/><g id="j"><use transform="matrix(0.027661309107849988,0,0,0.027661309107849988,0,0)" xlink:href="#W"/><use transform="matrix(0.027661309107849988,0,0,0.027661309107849988,6.0578266946191475,0)" xlink:href="#X"/><use transform="matrix(0.027661309107849988,0,0,0.027661309107849988,13.222105753552295,0)" xlink:href="#Y"/><use transform="matrix(0.027661309107849988,0,0,0.027661309107849988,20.386384812485442,0)" xlink:href="#Z"/><use transform="matrix(0.027661309107849988,0,0,0.027661309107849988,27.55066387141859,0)" xlink:href="#aa"/><use transform="matrix(0.027661309107849988,0,0,0.027661309107849988,34.71494293035174,0)" xlink:href="#aB"/><use transform="matrix(0.027661309107849988,0,0,0.027661309107849988,41.35365711623574,0)" xlink:href="#ab"/><use transform="matrix(0.027661309107849988,0,0,0.027661309107849988,46.885918937805734,0)" xlink:href="#ac"/><use transform="matrix(0.027661309107849988,0,0,0.027661309107849988,49.652049848590735,0)" xlink:href="#ad"/><use transform="matrix(0.027661309107849988,0,0,0.027661309107849988,56.81632890752389,0)" xlink:href="#ab"/><use transform="matrix(0.027661309107849988,0,0,0.027661309107849988,62.34859072909387,0)" xlink:href="#ax"/><use transform="matrix(0.027661309107849988,0,0,0.027661309107849988,68.98730491497787,0)" xlink:href="#av"/><use transform="matrix(0.027661309107849988,0,0,0.027661309107849988,75.04513160959702,0)" xlink:href="#Y"/><use transform="matrix(0.027661309107849988,0,0,0.027661309107849988,81.29658746797112,0)" xlink:href="#aw"/><use transform="matrix(0.027661309107849988,0,0,0.027661309107849988,87.93530165385512,0)" xlink:href="#av"/><use transform="matrix(0.027661309107849988,0,0,0.027661309107849988,93.99312834847427,0)" xlink:href="#ac"/><use transform="matrix(0.027661309107849988,0,0,0.027661309107849988,96.75925925925927,0)" xlink:href="#aB"/><use transform="matrix(0.027661309107849988,0,0,0.027661309107849988,103.39797344514326,0)" xlink:href="#W"/><use transform="matrix(0.027661309107849988,0,0,0.027661309107849988,109.45580013976242,0)" xlink:href="#aB"/></g><g id="k"><use transform="matrix(0.027661309107849988,0,0,0.027661309107849988,0,0)" xlink:href="#az"/><use transform="matrix(0.027661309107849988,0,0,0.027661309107849988,6.0578266946191475,0)" xlink:href="#aq"/><use transform="matrix(0.027661309107849988,0,0,0.027661309107849988,8.823957605404146,0)" xlink:href="#ai"/><use transform="matrix(0.027661309107849988,0,0,0.027661309107849988,14.356219426974144,0)" xlink:href="#aA"/><use transform="matrix(0.027661309107849988,0,0,0.027661309107849988,19.888481248544142,0)" xlink:href="#aq"/><use transform="matrix(0.027661309107849988,0,0,0.027661309107849988,22.65461215932914,0)" xlink:href="#al"/><use transform="matrix(0.027661309107849988,0,0,0.027661309107849988,25.42074307011414,0)" xlink:href="#ar"/><use transform="matrix(0.027661309107849988,0,0,0.027661309107849988,30.953004891684138,0)" xlink:href="#ag"/><use transform="matrix(0.027661309107849988,0,0,0.027661309107849988,34.24470067551829,0)" xlink:href="#ab"/><use transform="matrix(0.027661309107849988,0,0,0.027661309107849988,39.776962497088284,0)" xlink:href="#al"/><use transform="matrix(0.027661309107849988,0,0,0.027661309107849988,42.543093407873286,0)" xlink:href="#am"/></g><g id="l"><use transform="matrix(0.027661309107849988,0,0,0.027661309107849988,0,0)" xlink:href="#ai"/><use transform="matrix(0.027661309107849988,0,0,0.027661309107849988,5.532261821569998,0)" xlink:href="#am"/><use transform="matrix(0.027661309107849988,0,0,0.027661309107849988,11.590088516189144,0)" xlink:href="#am"/><use transform="matrix(0.027661309107849988,0,0,0.027661309107849988,17.647915210808293,0)" xlink:href="#ap"/><use transform="matrix(0.027661309107849988,0,0,0.027661309107849988,23.18017703237829,0)" xlink:href="#am"/><use transform="matrix(0.027661309107849988,0,0,0.027661309107849988,29.238003726997437,0)" xlink:href="#ab"/><use transform="matrix(0.027661309107849988,0,0,0.027661309107849988,34.77026554856744,0)" xlink:href="#ai"/><use transform="matrix(0.027661309107849988,0,0,0.027661309107849988,40.30252737013743,0)" xlink:href="#ag"/></g><g id="m"><use transform="matrix(0.027661309107849988,0,0,0.027661309107849988,0,0)" xlink:href="#aq"/><use transform="matrix(0.027661309107849988,0,0,0.027661309107849988,2.766130910784999,0)" xlink:href="#ai"/><use transform="matrix(0.027661309107849988,0,0,0.027661309107849988,8.298392732354998,0)" xlink:href="#ar"/><use transform="matrix(0.027661309107849988,0,0,0.027661309107849988,13.830654553924996,0)" xlink:href="#ag"/><use transform="matrix(0.027661309107849988,0,0,0.027661309107849988,17.122350337759144,0)" xlink:href="#ab"/><use transform="matrix(0.027661309107849988,0,0,0.027661309107849988,22.65461215932914,0)" xlink:href="#ar"/><use transform="matrix(0.027661309107849988,0,0,0.027661309107849988,28.186873980899136,0)" xlink:href="#ap"/><use transform="matrix(0.027661309107849988,0,0,0.027661309107849988,33.71913580246913,0)" xlink:href="#ap"/><use transform="matrix(0.027661309107849988,0,0,0.027661309107849988,39.25139762403913,0)" xlink:href="#an"/></g><path fill="#999" d="M24 0v-248h195v40H76v63h132v40H76v65h150V0H24" id="aC"/><path fill="#999" d="M175 0L67-191c6 58 2 128 3 191H24v-248h59L193-55c-6-58-2-129-3-193h46V0h-61" id="aD"/><path fill="#999" d="M136-208V0H84v-208H4v-40h212v40h-80" id="aE"/><path fill="#999" d="M24 0v-248h52V0H24" id="aF"/><path fill="#999" d="M146-102V0H94v-102L6-248h54l60 105 60-105h54" id="aG"/><g id="n"><use transform="matrix(0.05186495457721873,0,0,0.05186495457721873,0,0)" xlink:href="#aC"/><use transform="matrix(0.05186495457721873,0,0,0.05186495457721873,12.447589098532495,0)" xlink:href="#aD"/><use transform="matrix(0.05186495457721873,0,0,0.05186495457721873,25.880612334032143,0)" xlink:href="#aE"/><use transform="matrix(0.05186495457721873,0,0,0.05186495457721873,37.239037386443044,0)" xlink:href="#aF"/><use transform="matrix(0.05186495457721873,0,0,0.05186495457721873,42.42553284416492,0)" xlink:href="#aE"/><use transform="matrix(0.05186495457721873,0,0,0.05186495457721873,53.78395789657582,0)" xlink:href="#aG"/></g><path fill="#999" d="M240-174c0 40-23 61-54 70L253 0h-59l-57-94H76V0H24v-248c93 4 217-23 216 74zM76-134c48-2 112 12 112-38 0-48-66-32-112-35v73" id="aH"/><path fill="#999" d="M24 0v-248h52v208h133V0H24" id="aI"/><path fill="#999" d="M199 0l-22-63H83L61 0H9l90-248h61L250 0h-51zm-33-102l-36-108c-10 38-24 72-36 108h72" id="aJ"/><path fill="#999" d="M140-251c80 0 125 45 125 126S219 4 139 4C58 4 15-44 15-125s44-126 125-126zm-1 214c52 0 73-35 73-88 0-50-21-86-72-86-52 0-73 35-73 86s22 88 72 88" id="aK"/><path fill="#999" d="M169-182c-1-43-94-46-97-3 18 66 151 10 154 114 3 95-165 93-204 36-6-8-10-19-12-30l50-8c3 46 112 56 116 5-17-69-150-10-154-114-4-87 153-88 188-35 5 8 8 18 10 28" id="aL"/><path fill="#999" d="M186 0v-106H76V0H24v-248h52v99h110v-99h50V0h-50" id="aM"/><path fill="#999" d="M24-248c93 1 206-16 204 79-1 75-69 88-152 82V0H24v-248zm52 121c47 0 100 7 100-41 0-47-54-39-100-39v80" id="aN"/><g id="o"><use transform="matrix(0.05186495457721873,0,0,0.05186495457721873,0,0)" xlink:href="#aH"/><use transform="matrix(0.05186495457721873,0,0,0.05186495457721873,13.43302323549965,0)" xlink:href="#aC"/><use transform="matrix(0.05186495457721873,0,0,0.05186495457721873,25.880612334032143,0)" xlink:href="#aI"/><use transform="matrix(0.05186495457721873,0,0,0.05186495457721873,37.239037386443044,0)" xlink:href="#aJ"/><use transform="matrix(0.05186495457721873,0,0,0.05186495457721873,49.271706848357795,0)" xlink:href="#aE"/><use transform="matrix(0.05186495457721873,0,0,0.05186495457721873,60.630131900768696,0)" xlink:href="#aF"/><use transform="matrix(0.05186495457721873,0,0,0.05186495457721873,65.81662735849056,0)" xlink:href="#aK"/><use transform="matrix(0.05186495457721873,0,0,0.05186495457721873,80.3388146401118,0)" xlink:href="#aD"/><use transform="matrix(0.05186495457721873,0,0,0.05186495457721873,93.77183787561145,0)" xlink:href="#aL"/><use transform="matrix(0.05186495457721873,0,0,0.05186495457721873,106.21942697414394,0)" xlink:href="#aM"/><use transform="matrix(0.05186495457721873,0,0,0.05186495457721873,119.65245020964359,0)" xlink:href="#aF"/><use transform="matrix(0.05186495457721873,0,0,0.05186495457721873,124.83894566736545,0)" xlink:href="#aN"/></g><path fill="#999" d="M24-248c120-7 223 5 221 122C244-46 201 0 124 0H24v-248zM76-40c74 7 117-18 117-86 0-67-45-88-117-82v168" id="aO"/><path fill="#999" d="M67-125c0 54 23 88 75 88 28 0 53-7 68-21v-34h-60v-39h108v91C232-14 192 4 140 4 58 4 20-42 15-125 8-236 126-280 215-234c19 10 29 26 37 47l-47 15c-11-23-29-39-63-39-53 1-75 33-75 86" id="aP"/><path fill="#999" d="M230 0l2-204L168 0h-37L68-204 70 0H24v-248h70l56 185 57-185h69V0h-46" id="aQ"/><g id="p"><use transform="matrix(0.05186495457721873,0,0,0.05186495457721873,0,0)" xlink:href="#aO"/><use transform="matrix(0.05186495457721873,0,0,0.05186495457721873,13.43302323549965,0)" xlink:href="#aF"/><use transform="matrix(0.05186495457721873,0,0,0.05186495457721873,18.619518693221522,0)" xlink:href="#aJ"/><use transform="matrix(0.05186495457721873,0,0,0.05186495457721873,32.05254192872117,0)" xlink:href="#aP"/><use transform="matrix(0.05186495457721873,0,0,0.05186495457721873,46.57472921034241,0)" xlink:href="#aH"/><use transform="matrix(0.05186495457721873,0,0,0.05186495457721873,60.00775244584206,0)" xlink:href="#aJ"/><use transform="matrix(0.05186495457721873,0,0,0.05186495457721873,73.4407756813417,0)" xlink:href="#aQ"/></g><path fill="#999" d="M238-95c0 69-44 99-111 99C63 4 22-25 22-93v-155h51v151c-1 38 19 59 55 60 90 1 49-130 58-211h52v153" id="aR"/><g id="q"><use transform="matrix(0.05186495457721873,0,0,0.05186495457721873,0,0)" xlink:href="#aE"/><use transform="matrix(0.05186495457721873,0,0,0.05186495457721873,11.358425052410901,0)" xlink:href="#aR"/><use transform="matrix(0.05186495457721873,0,0,0.05186495457721873,24.79144828791055,0)" xlink:href="#aE"/><use transform="matrix(0.05186495457721873,0,0,0.05186495457721873,35.78681865828092,0)" xlink:href="#aK"/><use transform="matrix(0.05186495457721873,0,0,0.05186495457721873,50.309005939902164,0)" xlink:href="#aH"/><use transform="matrix(0.05186495457721873,0,0,0.05186495457721873,63.742029175401804,0)" xlink:href="#aF"/><use transform="matrix(0.05186495457721873,0,0,0.05186495457721873,68.92852463312369,0)" xlink:href="#aJ"/><use transform="matrix(0.05186495457721873,0,0,0.05186495457721873,82.36154786862333,0)" xlink:href="#aI"/></g><path fill="#999" d="M30 0v-248h33v221h125V0H30" id="aS"/><path fill="#999" d="M24-231v-30h32v30H24zM24 0v-190h32V0H24" id="aT"/><path fill="#999" d="M135-143c-3-34-86-38-87 0 15 53 115 12 119 90S17 21 10-45l28-5c4 36 97 45 98 0-10-56-113-15-118-90-4-57 82-63 122-42 12 7 21 19 24 35" id="aU"/><path fill="#999" d="M141-36C126-15 110 5 73 4 37 3 15-17 15-53c-1-64 63-63 125-63 3-35-9-54-41-54-24 1-41 7-42 31l-33-3c5-37 33-52 76-52 45 0 72 20 72 64v82c-1 20 7 32 28 27v20c-31 9-61-2-59-35zM48-53c0 20 12 33 32 33 41-3 63-29 60-74-43 2-92-5-92 41" id="aV"/><g id="r"><use transform="matrix(0.04149196366177498,0,0,0.04149196366177498,0,0)" xlink:href="#aS"/><use transform="matrix(0.04149196366177498,0,0,0.04149196366177498,8.298392732354996,0)" xlink:href="#aT"/><use transform="matrix(0.04149196366177498,0,0,0.04149196366177498,11.57625786163522,0)" xlink:href="#aU"/><use transform="matrix(0.04149196366177498,0,0,0.04149196366177498,19.044811320754718,0)" xlink:href="#aV"/></g><path fill="#999" d="M185-189c-5-48-123-54-124 2 14 75 158 14 163 119 3 78-121 87-175 55-17-10-28-26-33-46l33-7c5 56 141 63 141-1 0-78-155-14-162-118-5-82 145-84 179-34 5 7 8 16 11 25" id="aW"/><path fill="#999" d="M100-194c62-1 85 37 85 99 1 63-27 99-86 99S16-35 15-95c0-66 28-99 85-99zM99-20c44 1 53-31 53-75 0-43-8-75-51-75s-53 32-53 75 10 74 51 75" id="aX"/><path fill="#999" d="M24 0v-261h32V0H24" id="aY"/><path fill="#999" d="M108 0H70L1-190h34L89-25l56-165h34" id="aZ"/><path fill="#999" d="M179-190L93 31C79 59 56 82 12 73V49c39 6 53-20 64-50L1-190h34L92-34l54-156h33" id="ba"/><path fill="#999" d="M100-194c63 0 86 42 84 106H49c0 40 14 67 53 68 26 1 43-12 49-29l28 8c-11 28-37 45-77 45C44 4 14-33 15-96c1-61 26-98 85-98zm52 81c6-60-76-77-97-28-3 7-6 17-6 28h103" id="bb"/><g id="s"><use transform="matrix(0.04149196366177498,0,0,0.04149196366177498,0,0)" xlink:href="#aW"/><use transform="matrix(0.04149196366177498,0,0,0.04149196366177498,9.958071278825996,0)" xlink:href="#aX"/><use transform="matrix(0.04149196366177498,0,0,0.04149196366177498,18.25646401118099,0)" xlink:href="#aY"/><use transform="matrix(0.04149196366177498,0,0,0.04149196366177498,21.534329140461214,0)" xlink:href="#aX"/><use transform="matrix(0.04149196366177498,0,0,0.04149196366177498,29.832721872816208,0)" xlink:href="#aZ"/><use transform="matrix(0.04149196366177498,0,0,0.04149196366177498,37.301275331935706,0)" xlink:href="#ba"/><use transform="matrix(0.04149196366177498,0,0,0.04149196366177498,44.769828791055204,0)" xlink:href="#bb"/><use transform="matrix(0.04149196366177498,0,0,0.04149196366177498,53.0682215234102,0)" xlink:href="#aZ"/><use transform="matrix(0.04149196366177498,0,0,0.04149196366177498,60.5367749825297,0)" xlink:href="#aV"/></g><path fill="#999" d="M32 76v-337h29V76H32" id="bc"/><use transform="matrix(0.04149196366177498,0,0,0.04149196366177498,0,0)" xlink:href="#bc" id="t"/><path fill="#999" d="M205 0l-28-72H64L36 0H1l101-248h38L239 0h-34zm-38-99l-47-123c-12 45-31 82-46 123h93" id="bd"/><path fill="#999" d="M115-194c55 1 70 41 70 98S169 2 115 4C84 4 66-9 55-30l1 105H24l-1-265h31l2 30c10-21 28-34 59-34zm-8 174c40 0 45-34 45-75s-6-73-45-74c-42 0-51 32-51 76 0 43 10 73 51 73" id="be"/><path fill="#999" d="M114-163C36-179 61-72 57 0H25l-1-190h30c1 12-1 29 2 39 6-27 23-49 58-41v29" id="bf"/><g id="u"><use transform="matrix(0.04149196366177498,0,0,0.04149196366177498,0,0)" xlink:href="#bd"/><use transform="matrix(0.04149196366177498,0,0,0.04149196366177498,9.958071278825996,0)" xlink:href="#be"/><use transform="matrix(0.04149196366177498,0,0,0.04149196366177498,18.25646401118099,0)" xlink:href="#bf"/><use transform="matrix(0.04149196366177498,0,0,0.04149196366177498,23.194007686932213,0)" xlink:href="#aT"/><use transform="matrix(0.04149196366177498,0,0,0.04149196366177498,26.471872816212432,0)" xlink:href="#aY"/></g><path fill="#999" d="M101-251c82-7 93 87 43 132L82-64C71-53 59-42 53-27h129V0H18c2-99 128-94 128-182 0-28-16-43-45-43s-46 15-49 41l-32-3c6-41 34-60 81-64" id="bg"/><path fill="#999" d="M110-160c48 1 74 30 74 79 0 53-28 85-80 85-65 0-83-55-86-122-5-90 50-162 133-122 14 7 22 21 27 39l-31 6c-5-40-67-38-82-6-9 19-15 44-15 74 11-20 30-34 60-33zm-7 138c34 0 49-23 49-58s-16-56-50-56c-29 0-50 16-49 49 1 36 15 65 50 65" id="bh"/><path fill="#999" d="M68-38c1 34 0 65-14 84H32c9-13 17-26 17-46H33v-38h35" id="bi"/><g id="v"><use transform="matrix(0.04149196366177498,0,0,0.04149196366177498,0,0)" xlink:href="#bg"/><use transform="matrix(0.04149196366177498,0,0,0.04149196366177498,8.298392732354996,0)" xlink:href="#bh"/><use transform="matrix(0.04149196366177498,0,0,0.04149196366177498,16.596785464709992,0)" xlink:href="#bi"/></g><path fill="#999" d="M101-251c68 0 85 55 85 127S166 4 100 4C33 4 14-52 14-124c0-73 17-127 87-127zm-1 229c47 0 54-49 54-102s-4-102-53-102c-51 0-55 48-55 102 0 53 5 102 54 102" id="bj"/><g id="w"><use transform="matrix(0.04149196366177498,0,0,0.04149196366177498,0,0)" xlink:href="#bg"/><use transform="matrix(0.04149196366177498,0,0,0.04149196366177498,8.298392732354996,0)" xlink:href="#bj"/><use transform="matrix(0.04149196366177498,0,0,0.04149196366177498,16.596785464709992,0)" xlink:href="#bg"/><use transform="matrix(0.04149196366177498,0,0,0.04149196366177498,24.895178197064986,0)" xlink:href="#bj"/></g><path fill="#333" d="M67-125c0 54 23 88 75 88 28 0 53-7 68-21v-34h-60v-39h108v91C232-14 192 4 140 4 58 4 20-42 15-125 8-236 126-280 215-234c19 10 29 26 37 47l-47 15c-11-23-29-39-63-39-53 1-75 33-75 86" id="bk"/><path fill="#333" d="M24 0v-248h195v40H76v63h132v40H76v65h150V0H24" id="bl"/><g id="x"><use transform="matrix(0.027661309107849988,0,0,0.027661309107849988,0,0)" xlink:href="#W"/><use transform="matrix(0.027661309107849988,0,0,0.027661309107849988,6.0578266946191475,0)" xlink:href="#X"/><use transform="matrix(0.027661309107849988,0,0,0.027661309107849988,13.222105753552295,0)" xlink:href="#Y"/><use transform="matrix(0.027661309107849988,0,0,0.027661309107849988,20.386384812485442,0)" xlink:href="#Z"/><use transform="matrix(0.027661309107849988,0,0,0.027661309107849988,27.55066387141859,0)" xlink:href="#aa"/><use transform="matrix(0.027661309107849988,0,0,0.027661309107849988,34.71494293035174,0)" xlink:href="#aB"/><use transform="matrix(0.027661309107849988,0,0,0.027661309107849988,41.35365711623574,0)" xlink:href="#ab"/><use transform="matrix(0.027661309107849988,0,0,0.027661309107849988,46.885918937805734,0)" xlink:href="#ac"/><use transform="matrix(0.027661309107849988,0,0,0.027661309107849988,49.652049848590735,0)" xlink:href="#ad"/><use transform="matrix(0.027661309107849988,0,0,0.027661309107849988,56.81632890752389,0)" xlink:href="#ab"/><use transform="matrix(0.027661309107849988,0,0,0.027661309107849988,62.34859072909387,0)" xlink:href="#ax"/><use transform="matrix(0.027661309107849988,0,0,0.027661309107849988,68.98730491497787,0)" xlink:href="#av"/><use transform="matrix(0.027661309107849988,0,0,0.027661309107849988,75.04513160959702,0)" xlink:href="#Y"/><use transform="matrix(0.027661309107849988,0,0,0.027661309107849988,81.29658746797112,0)" xlink:href="#aw"/><use transform="matrix(0.027661309107849988,0,0,0.027661309107849988,87.93530165385512,0)" xlink:href="#av"/><use transform="matrix(0.027661309107849988,0,0,0.027661309107849988,93.99312834847427,0)" xlink:href="#ac"/><use transform="matrix(0.027661309107849988,0,0,0.027661309107849988,96.75925925925927,0)" xlink:href="#aB"/><use transform="matrix(0.027661309107849988,0,0,0.027661309107849988,103.39797344514326,0)" xlink:href="#W"/><use transform="matrix(0.027661309107849988,0,0,0.027661309107849988,109.45580013976242,0)" xlink:href="#aB"/><use transform="matrix(0.027661309107849988,0,0,0.027661309107849988,116.09451432564643,0)" xlink:href="#ab"/><use transform="matrix(0.027661309107849988,0,0,0.027661309107849988,121.62677614721642,0)" xlink:href="#aB"/><use transform="matrix(0.027661309107849988,0,0,0.027661309107849988,128.26549033310042,0)" xlink:href="#W"/><use transform="matrix(0.027661309107849988,0,0,0.027661309107849988,133.57646168180761,0)" xlink:href="#Y"/><use transform="matrix(0.027661309107849988,0,0,0.027661309107849988,140.74074074074076,0)" xlink:href="#bk"/><use transform="matrix(0.027661309107849988,0,0,0.027661309107849988,148.48590729093877,0)" xlink:href="#bl"/></g><g id="y"><use transform="matrix(0.027661309107849988,0,0,0.027661309107849988,0,0)" xlink:href="#ag"/><use transform="matrix(0.027661309107849988,0,0,0.027661309107849988,3.2916957838341485,0)" xlink:href="#ah"/><use transform="matrix(0.027661309107849988,0,0,0.027661309107849988,7.164279058933147,0)" xlink:href="#ai"/><use transform="matrix(0.027661309107849988,0,0,0.027661309107849988,12.696540880503145,0)" xlink:href="#aj"/><use transform="matrix(0.027661309107849988,0,0,0.027661309107849988,18.228802702073143,0)" xlink:href="#ak"/><use transform="matrix(0.027661309107849988,0,0,0.027661309107849988,23.761064523643142,0)" xlink:href="#ab"/><use transform="matrix(0.027661309107849988,0,0,0.027661309107849988,29.29332634521314,0)" xlink:href="#al"/><use transform="matrix(0.027661309107849988,0,0,0.027661309107849988,32.05945725599814,0)" xlink:href="#am"/></g><g id="z"><use transform="matrix(0.027661309107849988,0,0,0.027661309107849988,0,0)" xlink:href="#az"/><use transform="matrix(0.027661309107849988,0,0,0.027661309107849988,6.0578266946191475,0)" xlink:href="#aq"/><use transform="matrix(0.027661309107849988,0,0,0.027661309107849988,8.823957605404146,0)" xlink:href="#ai"/><use transform="matrix(0.027661309107849988,0,0,0.027661309107849988,14.356219426974144,0)" xlink:href="#aA"/><use transform="matrix(0.027661309107849988,0,0,0.027661309107849988,19.888481248544142,0)" xlink:href="#aq"/><use transform="matrix(0.027661309107849988,0,0,0.027661309107849988,22.65461215932914,0)" xlink:href="#al"/><use transform="matrix(0.027661309107849988,0,0,0.027661309107849988,25.42074307011414,0)" xlink:href="#ar"/><use transform="matrix(0.027661309107849988,0,0,0.027661309107849988,30.953004891684138,0)" xlink:href="#ag"/><use transform="matrix(0.027661309107849988,0,0,0.027661309107849988,34.24470067551829,0)" xlink:href="#ab"/><use transform="matrix(0.027661309107849988,0,0,0.027661309107849988,39.776962497088284,0)" xlink:href="#al"/><use transform="matrix(0.027661309107849988,0,0,0.027661309107849988,42.543093407873286,0)" xlink:href="#am"/></g><g id="A"><use transform="matrix(0.027661309107849988,0,0,0.027661309107849988,0,0)" xlink:href="#ai"/><use transform="matrix(0.027661309107849988,0,0,0.027661309107849988,5.532261821569998,0)" xlink:href="#am"/><use transform="matrix(0.027661309107849988,0,0,0.027661309107849988,11.590088516189144,0)" xlink:href="#am"/><use transform="matrix(0.027661309107849988,0,0,0.027661309107849988,17.647915210808293,0)" xlink:href="#ap"/><use transform="matrix(0.027661309107849988,0,0,0.027661309107849988,23.18017703237829,0)" xlink:href="#am"/><use transform="matrix(0.027661309107849988,0,0,0.027661309107849988,29.238003726997437,0)" xlink:href="#ab"/><use transform="matrix(0.027661309107849988,0,0,0.027661309107849988,34.77026554856744,0)" xlink:href="#ai"/><use transform="matrix(0.027661309107849988,0,0,0.027661309107849988,40.30252737013743,0)" xlink:href="#ag"/></g><g id="B"><use transform="matrix(0.027661309107849988,0,0,0.027661309107849988,0,0)" xlink:href="#am"/><use transform="matrix(0.027661309107849988,0,0,0.027661309107849988,6.0578266946191475,0)" xlink:href="#am"/><use transform="matrix(0.027661309107849988,0,0,0.027661309107849988,12.115653389238295,0)" xlink:href="#ag"/></g><path fill="#333" d="M121-226c-27-7-43 5-38 36h38v33H83V0H34v-157H6v-33h28c-9-59 32-81 87-68v32" id="bm"/><g id="C"><use transform="matrix(0.04149196366177498,0,0,0.04149196366177498,0,0)" xlink:href="#aB"/><use transform="matrix(0.04149196366177498,0,0,0.04149196366177498,9.958071278825996,0)" xlink:href="#az"/><use transform="matrix(0.04149196366177498,0,0,0.04149196366177498,19.044811320754718,0)" xlink:href="#at"/><use transform="matrix(0.04149196366177498,0,0,0.04149196366177498,28.13155136268344,0)" xlink:href="#ag"/><use transform="matrix(0.04149196366177498,0,0,0.04149196366177498,33.06909503843466,0)" xlink:href="#al"/><use transform="matrix(0.04149196366177498,0,0,0.04149196366177498,37.21829140461216,0)" xlink:href="#bm"/><use transform="matrix(0.04149196366177498,0,0,0.04149196366177498,42.15583508036338,0)" xlink:href="#aA"/></g><g id="D"><use transform="matrix(0.04149196366177498,0,0,0.04149196366177498,0,0)" xlink:href="#Y"/><use transform="matrix(0.04149196366177498,0,0,0.04149196366177498,10.74641858839972,0)" xlink:href="#ax"/><use transform="matrix(0.04149196366177498,0,0,0.04149196366177498,20.704489867225718,0)" xlink:href="#ac"/></g><g id="E"><use transform="matrix(0.04149196366177498,0,0,0.04149196366177498,0,0)" xlink:href="#bl"/><use transform="matrix(0.04149196366177498,0,0,0.04149196366177498,9.958071278825996,0)" xlink:href="#W"/><use transform="matrix(0.04149196366177498,0,0,0.04149196366177498,19.044811320754718,0)" xlink:href="#av"/></g><path fill="#333" d="M14-72v-43h91v43H14" id="bn"/><use transform="matrix(0.027661309107849988,0,0,0.027661309107849988,0,0)" xlink:href="#bn" id="F"/><g id="G"><use transform="matrix(0.027661309107849988,0,0,0.027661309107849988,0,0)" xlink:href="#bm"/><use transform="matrix(0.027661309107849988,0,0,0.027661309107849988,3.2916957838341485,0)" xlink:href="#al"/><use transform="matrix(0.027661309107849988,0,0,0.027661309107849988,6.0578266946191475,0)" xlink:href="#aq"/><use transform="matrix(0.027661309107849988,0,0,0.027661309107849988,8.823957605404146,0)" xlink:href="#ag"/><use transform="matrix(0.027661309107849988,0,0,0.027661309107849988,12.115653389238295,0)" xlink:href="#ap"/><use transform="matrix(0.027661309107849988,0,0,0.027661309107849988,17.647915210808293,0)" xlink:href="#ah"/></g><g id="H"><use transform="matrix(0.027661309107849988,0,0,0.027661309107849988,0,0)" xlink:href="#ag"/><use transform="matrix(0.027661309107849988,0,0,0.027661309107849988,3.2916957838341485,0)" xlink:href="#ah"/><use transform="matrix(0.027661309107849988,0,0,0.027661309107849988,7.164279058933147,0)" xlink:href="#ai"/><use transform="matrix(0.027661309107849988,0,0,0.027661309107849988,12.696540880503145,0)" xlink:href="#aj"/><use transform="matrix(0.027661309107849988,0,0,0.027661309107849988,18.228802702073143,0)" xlink:href="#ak"/><use transform="matrix(0.027661309107849988,0,0,0.027661309107849988,23.761064523643142,0)" xlink:href="#ab"/><use transform="matrix(0.027661309107849988,0,0,0.027661309107849988,29.29332634521314,0)" xlink:href="#al"/><use transform="matrix(0.027661309107849988,0,0,0.027661309107849988,32.05945725599814,0)" xlink:href="#am"/></g><path fill="#333" d="M195-6C206 82 75 100 31 46c-4-6-6-13-8-21l49-6c3 16 16 24 34 25 40 0 42-37 40-79-11 22-30 35-61 35-53 0-70-43-70-97 0-56 18-96 73-97 30 0 46 14 59 34l2-30h47zm-90-29c32 0 41-27 41-63 0-35-9-62-40-62-32 0-39 29-40 63 0 36 9 62 39 62" id="bo"/><g id="I"><use transform="matrix(0.027661309107849988,0,0,0.027661309107849988,0,0)" xlink:href="#as"/><use transform="matrix(0.027661309107849988,0,0,0.027661309107849988,6.0578266946191475,0)" xlink:href="#ar"/><use transform="matrix(0.027661309107849988,0,0,0.027661309107849988,11.590088516189144,0)" xlink:href="#al"/><use transform="matrix(0.027661309107849988,0,0,0.027661309107849988,14.356219426974144,0)" xlink:href="#an"/><use transform="matrix(0.027661309107849988,0,0,0.027661309107849988,20.41404612159329,0)" xlink:href="#bo"/></g><g id="J"><use transform="matrix(0.027661309107849988,0,0,0.027661309107849988,0,0)" xlink:href="#ag"/><use transform="matrix(0.027661309107849988,0,0,0.027661309107849988,3.2916957838341485,0)" xlink:href="#ah"/><use transform="matrix(0.027661309107849988,0,0,0.027661309107849988,7.164279058933147,0)" xlink:href="#ai"/><use transform="matrix(0.027661309107849988,0,0,0.027661309107849988,12.696540880503145,0)" xlink:href="#aj"/><use transform="matrix(0.027661309107849988,0,0,0.027661309107849988,18.228802702073143,0)" xlink:href="#ak"/><use transform="matrix(0.027661309107849988,0,0,0.027661309107849988,23.761064523643142,0)" xlink:href="#ab"/><use transform="matrix(0.027661309107849988,0,0,0.027661309107849988,29.29332634521314,0)" xlink:href="#al"/><use transform="matrix(0.027661309107849988,0,0,0.027661309107849988,32.05945725599814,0)" xlink:href="#an"/><use transform="matrix(0.027661309107849988,0,0,0.027661309107849988,38.117283950617285,0)" xlink:href="#bm"/><use transform="matrix(0.027661309107849988,0,0,0.027661309107849988,41.408979734451435,0)" xlink:href="#at"/></g><g id="K"><use transform="matrix(0.027661309107849988,0,0,0.027661309107849988,0,0)" xlink:href="#ao"/><use transform="matrix(0.027661309107849988,0,0,0.027661309107849988,8.851618914511995,0)" xlink:href="#ai"/><use transform="matrix(0.027661309107849988,0,0,0.027661309107849988,14.383880736081993,0)" xlink:href="#ak"/><use transform="matrix(0.027661309107849988,0,0,0.027661309107849988,19.91614255765199,0)" xlink:href="#ap"/></g><g id="L"><use transform="matrix(0.027661309107849988,0,0,0.027661309107849988,0,0)" xlink:href="#ai"/><use transform="matrix(0.027661309107849988,0,0,0.027661309107849988,5.532261821569998,0)" xlink:href="#an"/></g><g id="M"><use transform="matrix(0.027661309107849988,0,0,0.027661309107849988,0,0)" xlink:href="#ay"/><use transform="matrix(0.027661309107849988,0,0,0.027661309107849988,7.164279058933147,0)" xlink:href="#ax"/><use transform="matrix(0.027661309107849988,0,0,0.027661309107849988,13.802993244817145,0)" xlink:href="#aB"/><use transform="matrix(0.027661309107849988,0,0,0.027661309107849988,20.441707430701143,0)" xlink:href="#bl"/><use transform="matrix(0.027661309107849988,0,0,0.027661309107849988,27.08042161658514,0)" xlink:href="#X"/><use transform="matrix(0.027661309107849988,0,0,0.027661309107849988,34.24470067551829,0)" xlink:href="#W"/></g><path fill="#333" d="M67-93c0 74 22 123 53 168H70C40 30 18-18 18-93s22-123 52-168h50c-32 44-53 94-53 168" id="bp"/><path fill="#333" d="M76-54c-1 42 2 86-19 110H24C36 42 46 24 48 0H25v-54h51" id="bq"/><g id="N"><use transform="matrix(0.027661309107849988,0,0,0.027661309107849988,0,0)" xlink:href="#bp"/><use transform="matrix(0.027661309107849988,0,0,0.027661309107849988,3.2916957838341485,0)" xlink:href="#ag"/><use transform="matrix(0.027661309107849988,0,0,0.027661309107849988,6.583391567668297,0)" xlink:href="#ah"/><use transform="matrix(0.027661309107849988,0,0,0.027661309107849988,10.455974842767295,0)" xlink:href="#ai"/><use transform="matrix(0.027661309107849988,0,0,0.027661309107849988,15.988236664337293,0)" xlink:href="#aj"/><use transform="matrix(0.027661309107849988,0,0,0.027661309107849988,21.52049848590729,0)" xlink:href="#ak"/><use transform="matrix(0.027661309107849988,0,0,0.027661309107849988,27.052760307477286,0)" xlink:href="#ab"/><use transform="matrix(0.027661309107849988,0,0,0.027661309107849988,32.58502212904728,0)" xlink:href="#al"/><use transform="matrix(0.027661309107849988,0,0,0.027661309107849988,35.35115303983228,0)" xlink:href="#am"/><use transform="matrix(0.027661309107849988,0,0,0.027661309107849988,41.40897973445143,0)" xlink:href="#bq"/></g><g id="O"><use transform="matrix(0.027661309107849988,0,0,0.027661309107849988,0,0)" xlink:href="#az"/><use transform="matrix(0.027661309107849988,0,0,0.027661309107849988,6.0578266946191475,0)" xlink:href="#aq"/><use transform="matrix(0.027661309107849988,0,0,0.027661309107849988,8.823957605404146,0)" xlink:href="#ai"/><use transform="matrix(0.027661309107849988,0,0,0.027661309107849988,14.356219426974144,0)" xlink:href="#aA"/><use transform="matrix(0.027661309107849988,0,0,0.027661309107849988,19.888481248544142,0)" xlink:href="#aq"/><use transform="matrix(0.027661309107849988,0,0,0.027661309107849988,22.65461215932914,0)" xlink:href="#al"/><use transform="matrix(0.027661309107849988,0,0,0.027661309107849988,25.42074307011414,0)" xlink:href="#ar"/><use transform="matrix(0.027661309107849988,0,0,0.027661309107849988,30.953004891684138,0)" xlink:href="#ag"/><use transform="matrix(0.027661309107849988,0,0,0.027661309107849988,34.24470067551829,0)" xlink:href="#ab"/><use transform="matrix(0.027661309107849988,0,0,0.027661309107849988,39.776962497088284,0)" xlink:href="#al"/><use transform="matrix(0.027661309107849988,0,0,0.027661309107849988,42.543093407873286,0)" xlink:href="#am"/><use transform="matrix(0.027661309107849988,0,0,0.027661309107849988,48.60092010249243,0)" xlink:href="#bq"/></g><path fill="#333" d="M102-93c0 74-22 123-52 168H0C30 29 54-18 53-93c0-74-22-123-53-168h50c30 45 52 94 52 168" id="br"/><g id="P"><use transform="matrix(0.027661309107849988,0,0,0.027661309107849988,0,0)" xlink:href="#ai"/><use transform="matrix(0.027661309107849988,0,0,0.027661309107849988,5.532261821569998,0)" xlink:href="#am"/><use transform="matrix(0.027661309107849988,0,0,0.027661309107849988,11.590088516189144,0)" xlink:href="#am"/><use transform="matrix(0.027661309107849988,0,0,0.027661309107849988,17.647915210808293,0)" xlink:href="#ap"/><use transform="matrix(0.027661309107849988,0,0,0.027661309107849988,23.18017703237829,0)" xlink:href="#am"/><use transform="matrix(0.027661309107849988,0,0,0.027661309107849988,29.238003726997437,0)" xlink:href="#ab"/><use transform="matrix(0.027661309107849988,0,0,0.027661309107849988,34.77026554856744,0)" xlink:href="#ai"/><use transform="matrix(0.027661309107849988,0,0,0.027661309107849988,40.30252737013743,0)" xlink:href="#ag"/><use transform="matrix(0.027661309107849988,0,0,0.027661309107849988,43.59422315397158,0)" xlink:href="#br"/></g><g id="Q"><use transform="matrix(0.027661309107849988,0,0,0.027661309107849988,0,0)" xlink:href="#as"/><use transform="matrix(0.027661309107849988,0,0,0.027661309107849988,6.0578266946191475,0)" xlink:href="#az"/><use transform="matrix(0.027661309107849988,0,0,0.027661309107849988,12.115653389238295,0)" xlink:href="#am"/><use transform="matrix(0.027661309107849988,0,0,0.027661309107849988,18.17348008385744,0)" xlink:href="#ai"/><use transform="matrix(0.027661309107849988,0,0,0.027661309107849988,23.705741905427438,0)" xlink:href="#ag"/><use transform="matrix(0.027661309107849988,0,0,0.027661309107849988,26.997437689261588,0)" xlink:href="#al"/><use transform="matrix(0.027661309107849988,0,0,0.027661309107849988,29.763568600046586,0)" xlink:href="#an"/><use transform="matrix(0.027661309107849988,0,0,0.027661309107849988,35.821395294665734,0)" xlink:href="#bo"/></g><g id="R"><use transform="matrix(0.027661309107849988,0,0,0.027661309107849988,0,0)" xlink:href="#aq"/><use transform="matrix(0.027661309107849988,0,0,0.027661309107849988,2.766130910784999,0)" xlink:href="#ai"/><use transform="matrix(0.027661309107849988,0,0,0.027661309107849988,8.298392732354998,0)" xlink:href="#ar"/><use transform="matrix(0.027661309107849988,0,0,0.027661309107849988,13.830654553924996,0)" xlink:href="#ag"/><use transform="matrix(0.027661309107849988,0,0,0.027661309107849988,17.122350337759144,0)" xlink:href="#ab"/><use transform="matrix(0.027661309107849988,0,0,0.027661309107849988,22.65461215932914,0)" xlink:href="#ar"/><use transform="matrix(0.027661309107849988,0,0,0.027661309107849988,28.186873980899136,0)" xlink:href="#ap"/><use transform="matrix(0.027661309107849988,0,0,0.027661309107849988,33.71913580246913,0)" xlink:href="#ap"/><use transform="matrix(0.027661309107849988,0,0,0.027661309107849988,39.25139762403913,0)" xlink:href="#an"/></g><path fill="#333" d="M231 0h-52l-39-155L100 0H48L-1-190h46L77-45c9-52 24-97 36-145h53l37 145 32-145h46" id="bs"/><path fill="#333" d="M114-157C55-157 80-60 75 0H25v-261h50l-1 109c12-26 28-41 61-42 86-1 58 113 63 194h-50c-7-57 23-157-34-157" id="bt"/><g id="S"><use transform="matrix(0.027661309107849988,0,0,0.027661309107849988,0,0)" xlink:href="#bs"/><use transform="matrix(0.027661309107849988,0,0,0.027661309107849988,7.745166550197997,0)" xlink:href="#al"/><use transform="matrix(0.027661309107849988,0,0,0.027661309107849988,10.511297460982995,0)" xlink:href="#ag"/><use transform="matrix(0.027661309107849988,0,0,0.027661309107849988,13.802993244817143,0)" xlink:href="#bt"/></g><g id="T"><use transform="matrix(0.027661309107849988,0,0,0.027661309107849988,0,0)" xlink:href="#aj"/><use transform="matrix(0.027661309107849988,0,0,0.027661309107849988,5.532261821569998,0)" xlink:href="#as"/><use transform="matrix(0.027661309107849988,0,0,0.027661309107849988,11.590088516189144,0)" xlink:href="#ah"/><use transform="matrix(0.027661309107849988,0,0,0.027661309107849988,15.462671791288143,0)" xlink:href="#ah"/><use transform="matrix(0.027661309107849988,0,0,0.027661309107849988,19.33525506638714,0)" xlink:href="#ap"/><use transform="matrix(0.027661309107849988,0,0,0.027661309107849988,24.867516887957137,0)" xlink:href="#an"/><use transform="matrix(0.027661309107849988,0,0,0.027661309107849988,30.925343582576286,0)" xlink:href="#ag"/></g><g id="U"><use transform="matrix(0.027661309107849988,0,0,0.027661309107849988,0,0)" xlink:href="#am"/><use transform="matrix(0.027661309107849988,0,0,0.027661309107849988,6.0578266946191475,0)" xlink:href="#ai"/><use transform="matrix(0.027661309107849988,0,0,0.027661309107849988,11.590088516189144,0)" xlink:href="#ag"/><use transform="matrix(0.027661309107849988,0,0,0.027661309107849988,14.881784300023293,0)" xlink:href="#ap"/></g><g id="V"><use transform="matrix(0.027661309107849988,0,0,0.027661309107849988,0,0)" xlink:href="#bp"/><use transform="matrix(0.027661309107849988,0,0,0.027661309107849988,3.2916957838341485,0)" xlink:href="#am"/><use transform="matrix(0.027661309107849988,0,0,0.027661309107849988,9.349522478453295,0)" xlink:href="#am"/><use transform="matrix(0.027661309107849988,0,0,0.027661309107849988,15.407349173072443,0)" xlink:href="#ag"/><use transform="matrix(0.027661309107849988,0,0,0.027661309107849988,18.69904495690659,0)" xlink:href="#br"/></g></defs></g></svg>